<?xml version="1.0" encoding="iso-8859-1"?>
<!-- Generator: Adobe Illustrator 19.0.0, SVG Export Plug-In . SVG Version: 6.00 Build 0)  -->
<svg version="1.1" id="Layer_1" xmlns="http://www.w3.org/2000/svg" xmlns:xlink="http://www.w3.org/1999/xlink" x="0px" y="0px"
	 viewBox="0 0 496.8 496.8" style="enable-background:new 0 0 496.8 496.8;" xml:space="preserve">
<g>
	<path style="fill:#D9CDC1;" d="M153.2,319.2c28.8-10.4,47.2-38.4,47.2-68.8V232c1.6,0.8,3.2,2.4,4.8,3.2v16
		c0,30.4-16.8,58.4-43.2,68.8c-39.2,16-65.6,58.4-65.6,104v56h-16v-56.8C80.4,377.6,109.2,335.2,153.2,319.2z"/>
	<path style="fill:#D9CDC1;" d="M416.4,423.2V480h-16v-56.8c0-45.6-26.4-87.2-65.6-104c-11.2-4.8-20.8-12.8-28-22.4
		c-0.8-1.6-2.4-3.2-3.2-4c-7.2-12-12-26.4-12-41.6v-16c1.6-0.8,3.2-1.6,4.8-3.2v18.4c0,15.2,4.8,29.6,12.8,41.6s20,21.6,34.4,27.2
		C387.6,335.2,416.4,377.6,416.4,423.2z"/>
</g>
<path style="fill:#42210B;" d="M287.6,236.8c0.8-0.8,2.4-1.6,3.2-1.6C290,236,289.2,236.8,287.6,236.8z"/>
<path style="fill:#1D9AAE;" d="M244.4,343.2c1.6,0.8,3.2,0.8,4,0.8c1.6,0,2.4,0,4-0.8L266,336l22.4,111.2L274.8,480H222l-13.6-32.8
	L230.8,336L244.4,343.2z"/>
<path style="fill:#2FB4C2;" d="M259.6,339.2l-7.2,4c-1.6,0.8-2.4,0.8-4,0.8s-2.4,0-4-0.8l-7.2-4l-12.8,108l8,32.8h32l8-32.8
	L259.6,339.2z"/>
<path style="fill:#D9CDC1;" d="M328.4,96v36c0,40.8-20.8,77.6-52.8,93.6l-27.2,13.6l21.6-13.6c25.6-16,42.4-52.8,42.4-93.6V96
	c0-42.4-27.2-77.6-60.8-80C294,17.6,328.4,52.8,328.4,96z"/>
<path style="fill:#FFF8EF;" d="M184.4,96c0-42.4,27.2-77.6,60.8-80c0.8,0,2.4,0,3.2,0c1.6,0,2.4,0,3.2,0c33.6,2.4,60.8,37.6,60.8,80
	v36c0,40.8-16.8,77.6-42.4,93.6l-21.6,13.6l-21.6-13.6c-25.6-16-42.4-52.8-42.4-93.6V96z"/>
<g>
	<path style="fill:#42210B;" d="M204.4,304.8l44,22.4l44-22.4l7.2,14.4l-19.2,9.6l24,117.6c0,1.6,0,3.2,0,4.8l-12,28.8h-17.6
		l12.8-32.8L266,336l-13.6,7.2c-1.6,0.8-2.4,0.8-4,0.8c-0.8,0-2.4,0-4-0.8l-13.6-7.2l-22.4,111.2l12.8,32.8h-17.6l-12-28.8
		c0.8-1.6,0.8-3.2,0.8-4.8l24-117.6l-19.2-9.6L204.4,304.8z"/>
	<path style="fill:#42210B;" d="M205.2,235.2c0.8,0.8,2.4,1.6,3.2,1.6C207.6,236.8,206.8,236,205.2,235.2z"/>
</g>
<path style="fill:#FFF8EF;" d="M334.8,319.2c-11.2-4.8-20.8-12.8-28-22.4c-0.8-1.6-2.4-3.2-3.2-4.8c-7.2-12-12-26.4-12-41.6v-16
	c0,0,0,0-0.8,0.8s-2.4,1.6-3.2,1.6c-1.6,0.8-4,2.4-5.6,3.2l-30.4,15.2c-0.8,0.8-1.6,0.8-3.2,0.8s-2.4,0-3.2-0.8L214,240
	c-1.6-0.8-4-1.6-5.6-3.2c-0.8-0.8-2.4-0.8-3.2-1.6c0,0-0.8,0-0.8-0.8v16c0,30.4-17.6,58.4-43.2,68.8c-39.2,16-65.6,58.4-65.6,104
	V480h108l-12-28.8c0.8-1.6,0.8-3.2,0.8-4.8l24-117.6l-19.2-9.6l7.2-14.4l44,22.4l44-22.4l7.2,14.4l-19.2,9.6l24,117.6
	c0,1.6,0,3.2,0,4.8l-12,28.8h108v-56.8C400.4,377.6,374,335.2,334.8,319.2z"/>
<path style="fill:#D9CDC1;" d="M168.4,132V96c0-43.2,34.4-78.4,76.8-80c-33.6,2.4-60.8,37.6-60.8,80v36c0,40.8,16.8,77.6,42.4,93.6
	l21.6,13.6l-27.2-13.6C189.2,209.6,168.4,172.8,168.4,132z"/>
<path style="fill:#42210B;" d="M184.4,217.6c-20-21.6-32-52-32-84.8V96c0-52.8,43.2-96,96-96s96,43.2,96,96v36
	c0,32.8-12,63.2-32,84.8v32.8c0,24,15.2,45.6,36.8,53.6c49.6,20,83.2,67.2,83.2,120v58.4c0,8-6.4,15.2-15.2,15.2H280.4h-64H79.6
	c-8,0-15.2-6.4-15.2-15.2v-58.4c0-52,33.6-100,83.2-119.2c22.4-8,36.8-30.4,36.8-53.6V217.6z M200.4,250.4
	c0,30.4-19.2,58.4-47.2,68.8c-43.2,16-72.8,58.4-72.8,104V480h16h108H222h52.8h17.6h108h16v-56.8c0-45.6-28.8-87.2-72.8-104
	c-14.4-5.6-26.4-15.2-34.4-27.2s-12.8-26.4-12.8-41.6V232c-1.6,0.8-3.2,2.4-4.8,3.2c0,0,0,0-0.8,0c-0.8,0.8-2.4,1.6-3.2,1.6
	c-1.6,0.8-3.2,2.4-5.6,3.2l-30.4,15.2c-0.8,0.8-1.6,0.8-3.2,0.8c-0.8,0-2.4,0-3.2-0.8L214,240c-1.6-0.8-4-1.6-5.6-3.2
	c-0.8-0.8-2.4-1.6-3.2-1.6c0,0,0,0-0.8,0c-1.6-0.8-3.2-1.6-4.8-3.2v18.4H200.4z M168.4,132c0,40.8,20.8,77.6,52.8,93.6l27.2,13.6
	l27.2-13.6c32-16,52.8-52.8,52.8-93.6V96c0-43.2-34.4-78.4-76.8-80c-0.8,0-2.4,0-3.2,0c-0.8,0-2.4,0-3.2,0
	c-42.4,1.6-76.8,36.8-76.8,80V132z"/>
<g>
</g>
<g>
</g>
<g>
</g>
<g>
</g>
<g>
</g>
<g>
</g>
<g>
</g>
<g>
</g>
<g>
</g>
<g>
</g>
<g>
</g>
<g>
</g>
<g>
</g>
<g>
</g>
<g>
</g>
</svg>
