<svg width="1300" height="1300" viewBox="0 0 1300 1300" fill="none" xmlns="http://www.w3.org/2000/svg">
<path d="M650 1300C290.71 1300 0 1008.86 0 650C0 290.71 291.141 0 650 0C1009.29 0 1300 291.141 1300 650C1300.43 1009.29 1009.29 1300 650 1300Z" fill="#B5E2DC"/>
<mask id="mask0_26_635" style="mask-type:alpha" maskUnits="userSpaceOnUse" x="0" y="0" width="1301" height="1300">
<path d="M650 1300C290.71 1300 0 1008.86 0 650C0 290.71 291.141 0 650 0C1009.29 0 1300 291.141 1300 650C1300.43 1009.29 1009.29 1300 650 1300Z" fill="#F7C0B5"/>
</mask>
<g mask="url(#mask0_26_635)">
<path d="M1014.87 1197.33C1011.83 1199.5 1008.37 1201.66 1005.33 1203.83C1001.87 1206 998.832 1208.16 995.366 1209.9C992.332 1211.63 989.732 1213.36 986.699 1215.1C986.266 1215.53 985.832 1215.53 985.399 1215.96C975.432 1222.03 965.032 1227.66 954.632 1232.86C951.599 1234.6 948.132 1236.33 945.099 1237.63C945.099 1237.63 944.666 1238.06 944.232 1238.06C940.766 1239.8 937.299 1241.53 933.832 1243.26C926.899 1246.73 919.532 1249.76 912.599 1252.8C909.132 1254.53 905.232 1255.83 901.766 1257.13C898.299 1258.43 894.399 1260.16 890.932 1261.46C887.466 1262.76 883.566 1264.5 880.099 1265.8C880.099 1265.8 880.099 1265.8 879.666 1265.8C876.199 1267.1 872.299 1268.4 868.832 1269.7C861.032 1272.3 852.799 1274.9 844.999 1277.5C842.399 1278.36 839.366 1279.23 836.766 1280.1C828.532 1282.7 820.299 1284.86 812.066 1286.6C809.032 1287.46 805.999 1287.9 802.532 1288.76C794.732 1290.5 786.499 1292.23 778.699 1293.96C776.966 1294.4 775.666 1294.4 773.932 1294.83C771.332 1295.26 768.299 1295.7 765.699 1296.13C761.799 1296.56 758.332 1297.43 754.432 1297.86C752.699 1298.3 750.966 1298.3 749.232 1298.73C747.066 1299.16 744.466 1299.6 741.866 1299.6C734.932 1300.46 727.566 1301.33 720.632 1302.2C718.466 1302.63 715.866 1302.63 713.699 1303.06H713.266C710.232 1303.5 707.199 1303.5 704.166 1303.93C701.132 1304.36 698.099 1304.36 695.066 1304.36C693.332 1304.36 691.166 1304.8 689.432 1304.8C685.966 1304.8 682.932 1305.23 679.899 1305.23C675.566 1305.23 671.666 1305.66 667.332 1305.66C662.999 1305.66 659.099 1305.66 654.766 1305.66C651.732 1305.66 648.699 1305.66 645.666 1305.66C463.232 1303.06 298.566 1225.5 181.566 1102.43C181.566 1102.43 181.566 1102 181.132 1102C194.566 1075.56 244.399 1027.9 296.399 988.465C362.266 938.632 455.432 907.865 455.432 907.865C455.432 907.865 516.532 897.898 743.166 945.132C916.066 981.532 989.732 1129.3 1014.87 1197.33Z" fill="#AD827B"/>
<path d="M791.266 1065.16C782.166 1109.8 723.233 1136.23 623.999 1096.36C502.233 1046.96 455.433 907.865 455.433 907.865C448.933 808.198 433.766 722.832 433.766 722.832C574.599 710.698 740.999 875.365 740.999 875.365L760.066 956.832C761.799 963.765 765.266 969.832 770.466 974.165C779.566 989.765 797.333 1036.56 791.266 1065.16Z" fill="#AD827B"/>
<path d="M770.466 974.599C687.699 970.265 626.599 958.132 561.166 840.699C616.632 889.665 682.066 908.299 750.966 916.965L760.066 956.832C761.799 964.199 765.266 970.265 770.466 974.599Z" fill="#8E5650"/>
<path d="M941.632 452.432C949.432 488.832 953.332 518.298 932.099 615.365C910.866 712.432 951.599 809.498 849.332 898.332C780.432 958.132 659.966 969.398 563.766 903.965C531.266 881.865 501.366 851.098 477.099 810.798C458.032 779.165 435.932 749.265 411.232 721.965C376.999 684.698 335.832 609.732 356.199 477.132C389.132 261.332 602.766 236.632 728.866 260.465C854.966 284.298 920.399 356.232 941.632 452.432Z" fill="#AD827B"/>
<path d="M526.932 621.865C526.932 621.865 513.499 556.865 450.232 564.665C395.632 571.598 376.566 702.465 500.499 738.865" fill="#AD827B"/>
<path d="M496.6 679.498C496.6 679.498 481 669.532 482.733 652.198C485.333 631.832 482.733 619.265 473.2 615.365C449.366 605.398 444.6 633.132 445.466 636.598" stroke="#423232" stroke-width="13" stroke-miterlimit="10" stroke-linecap="round" stroke-linejoin="round"/>
<path d="M827.232 721.532C827.232 721.532 843.699 722.398 859.299 703.765C867.965 693.365 875.332 680.365 870.565 676.465C865.799 672.132 787.365 684.265 782.165 694.665C776.965 705.065 807.299 721.532 827.232 721.532Z" fill="#8E605C"/>
<path d="M840.233 575.932C840.233 575.932 841.099 617.098 867.533 663.032C879.233 683.398 861.466 716.765 822.899 722.398" stroke="#423232" stroke-width="13" stroke-miterlimit="10" stroke-linecap="round" stroke-linejoin="round"/>
<path d="M377.807 891.367C377.807 891.367 441.074 866.233 452.774 865.367L453.64 875.334C453.64 875.334 403.374 897 400.34 900.467C397.74 903.5 377.807 891.367 377.807 891.367Z" fill="#7E5D6D"/>
<path d="M1158.24 1453.4H62.7739C62.7739 1453.4 69.2739 1252.33 135.141 1108.9C184.974 1000.57 304.574 929.067 391.674 897.867C416.374 889.2 435.441 879.667 453.207 874.9C453.207 877.067 454.507 893.1 454.507 894.834C454.507 894.834 522.974 962 677.241 970.234C748.741 974.134 755.674 929.5 755.674 929.5C763.907 927.767 771.707 925.6 779.507 923C782.107 922.134 800.307 914.767 802.474 913.9C858.374 928.634 926.841 970.234 1026.07 1053.43C1138.31 1148.33 1158.24 1453.4 1158.24 1453.4Z" fill="#423232"/>
<mask id="mask1_26_635" style="mask-type:alpha" maskUnits="userSpaceOnUse" x="62" y="874" width="1097" height="580">
<path d="M1158.24 1453.4H62.772C62.772 1453.4 69.272 1252.33 135.139 1108.9C184.972 1000.57 304.572 929.067 391.672 897.867C416.372 889.2 435.439 879.667 453.205 874.9C453.205 877.067 454.505 893.1 454.505 894.834C454.505 894.834 522.972 962 677.239 970.234C748.739 974.134 755.672 929.5 755.672 929.5C763.905 927.767 771.705 925.6 779.505 923C782.105 922.134 800.305 914.767 802.472 913.9C858.372 928.634 926.839 970.234 1026.07 1053.43C1138.31 1148.33 1158.24 1453.4 1158.24 1453.4Z" fill="#423232"/>
</mask>
<g mask="url(#mask1_26_635)">
<path d="M453.64 947.267C499.14 1011.4 620.474 1109.33 717.54 1127.97C763.907 1136.63 830.207 977.6 769.973 913.467C718.407 858.434 499.14 844.134 464.04 868.4C421.14 897 442.374 931.667 453.64 947.267Z" stroke="#FFFF8D" stroke-width="21.6667" stroke-miterlimit="10"/>
</g>
<path d="M947.207 1012.7C975.208 1012.7 997.907 990.001 997.907 962C997.907 933.999 975.208 911.3 947.207 911.3C919.206 911.3 896.507 933.999 896.507 962C896.507 990.001 919.206 1012.7 947.207 1012.7Z" fill="#FFFF8D"/>
<path d="M277.274 1453.4L257.774 1293.07" stroke="#544D4D" stroke-width="13" stroke-miterlimit="10" stroke-linecap="round" stroke-linejoin="round"/>
<path d="M1033.87 1238.03C1033.87 1238.03 1020.87 1269.67 1024.77 1301.3C1028.67 1332.93 1039.94 1379.3 1023.91 1453.4" stroke="#544D4D" stroke-width="13" stroke-miterlimit="10" stroke-linecap="round" stroke-linejoin="round"/>
<path d="M377.807 891.367C386.04 888.767 400.34 891.367 404.673 898.734C421.573 926.467 462.307 1007.5 479.207 1168.27C492.64 1293.93 472.273 1520.13 472.273 1520.13L51.5068 1500.2C51.5068 1500.2 64.0735 1286.57 100.907 1143.13C136.873 1004.03 231.34 941.634 377.807 891.367Z" fill="white"/>
<path d="M813.307 917.8C813.307 917.8 947.207 1169.57 908.207 1505.83H1197.24C1197.24 1505.83 1195.94 1238.9 1130.94 1093.73C1065.94 949 838.44 906.534 838.44 906.534C838.44 906.534 824.14 913.467 813.307 917.8Z" fill="white"/>
<path d="M813.306 917.8L802.906 914.767C802.906 914.767 818.073 907.4 824.573 903.067L828.473 900.9C828.473 900.9 849.273 910.434 856.64 913.9C864.006 917.367 831.073 933.4 831.073 933.4C831.073 933.4 814.606 917.8 813.306 917.8Z" fill="#7E5D6D"/>
<path d="M341.84 1040C341.84 1040 282.04 1082.03 287.673 1126.67C293.307 1171.3 477.473 1450.8 477.473 1450.8C477.473 1450.8 499.14 1299.13 474.44 1127.53C474.44 1127.53 456.673 1103.7 424.173 1079.87C402.507 1064.7 374.773 1048.67 341.84 1040Z" fill="#AD7E5A"/>
<path d="M1041.24 1126.67C1042.97 1098.93 978.84 1053.87 978.84 1053.87C953.274 1061.23 935.074 1072.93 922.074 1085.5C893.04 1112.8 889.14 1143.57 889.14 1143.57L890.874 1151.37C921.64 1285.27 912.54 1459.47 912.54 1459.47C912.54 1459.47 1039.51 1154.4 1041.24 1126.67Z" fill="#AD7E5A"/>
<path d="M474.007 1127.53C474.007 1127.53 443.674 1095.47 407.274 1072.93C326.674 1023.1 208.374 1000.13 207.074 961.567C206.207 918.234 350.074 827.667 445.407 796.9C445.407 797.334 445.407 797.767 445.407 798.2C445.407 798.634 445.407 799.067 445.407 799.934C445.407 800.8 445.407 801.667 445.841 802.534C445.841 803.834 446.274 805.134 446.274 806.434C446.274 807.3 446.274 807.734 446.707 808.6C449.741 834.6 452.341 863.634 454.507 894.4V894.834C454.507 894.834 434.574 901.334 448.874 1000.57C452.774 1024.83 467.507 1067.3 474.007 1127.53Z" fill="#AD7E5A"/>
<path d="M889.14 1141.4C889.14 1141.4 860.107 1028.73 845.807 992.767C831.507 957.233 804.64 916.933 803.34 914.767C820.24 906.967 835.407 897 848.84 885.3C862.274 873.6 873.107 861.9 882.207 850.2C930.74 875.767 1069.84 956.367 1076.77 996.667C1084.57 1040.43 916.007 1037.83 889.14 1141.4Z" fill="#AD7E5A"/>
<path d="M732.707 1204.67C760.708 1204.67 783.407 1181.97 783.407 1153.97C783.407 1125.97 760.708 1103.27 732.707 1103.27C704.706 1103.27 682.007 1125.97 682.007 1153.97C682.007 1181.97 704.706 1204.67 732.707 1204.67Z" fill="#FFFF8D"/>
<path d="M732.707 1179.97C747.066 1179.97 758.707 1168.33 758.707 1153.97C758.707 1139.61 747.066 1127.97 732.707 1127.97C718.347 1127.97 706.707 1139.61 706.707 1153.97C706.707 1168.33 718.347 1179.97 732.707 1179.97Z" fill="#FFBE71"/>
<path d="M978.84 1053.87C953.274 1061.23 935.074 1072.93 922.074 1085.5C893.04 1112.8 889.14 1143.57 889.14 1143.57" stroke="#894B33" stroke-width="13" stroke-miterlimit="10" stroke-linecap="round" stroke-linejoin="round"/>
<path d="M474.006 1127.53C474.006 1127.53 456.24 1103.7 423.74 1079.87C402.506 1064.27 374.773 1048.67 341.406 1039.57" stroke="#894B33" stroke-width="13" stroke-miterlimit="10" stroke-linecap="round" stroke-linejoin="round"/>
<path d="M699.71 590.249C699.71 590.683 699.71 591.116 699.71 591.116L699.277 603.249C698.843 613.649 690.177 621.449 679.777 621.016C669.377 620.583 661.577 611.483 662.443 601.516L662.877 589.383C662.877 587.216 663.743 584.616 664.61 582.883L699.277 584.616C699.277 586.349 699.71 588.083 699.71 590.249Z" fill="#423232"/>
<path d="M880.841 599.783L880.408 611.049C879.975 620.583 871.742 627.949 862.208 627.516C852.675 627.083 845.308 618.849 845.742 609.316L846.175 598.049C846.175 595.883 846.608 593.716 847.475 591.983L879.975 593.283C880.842 595.449 880.841 597.616 880.841 599.783Z" fill="#423232"/>
<path d="M743.042 530.882C752.576 532.182 759.942 522.216 756.476 512.682C754.742 507.482 751.709 502.716 746.942 499.682C732.209 490.582 677.176 489.716 648.142 510.516C622.576 529.582 699.709 524.816 743.042 530.882Z" fill="#423232"/>
<path d="M863.074 535.649C855.274 535.649 850.508 525.682 854.408 517.449C856.574 513.116 859.608 509.216 863.941 507.049C877.374 500.549 913.341 504.449 929.374 526.549C943.674 546.049 899.041 535.216 863.074 535.649Z" fill="#423232"/>
<path d="M727.875 585.482L698.842 584.182L664.175 582.882L656.375 582.449" stroke="#423232" stroke-width="13" stroke-miterlimit="10" stroke-linecap="round" stroke-linejoin="round"/>
<path d="M899.042 594.149L879.975 593.283L847.475 591.983H846.175" stroke="#423232" stroke-width="13" stroke-miterlimit="10" stroke-linecap="round" stroke-linejoin="round"/>
<path d="M809.297 750.856C809.297 750.856 820.564 744.789 826.631 755.189C832.697 765.589 817.964 777.289 817.964 777.289C817.964 777.289 834.431 789.423 823.164 804.589C814.064 816.723 800.198 815.856 800.198 815.856" stroke="#423232" stroke-width="13" stroke-miterlimit="10" stroke-linecap="round" stroke-linejoin="round"/>
<path d="M946.381 478.166C945.514 472.966 944.214 467.766 943.348 462.133C938.581 440.9 931.648 420.966 922.548 402.333L871.414 423.566C856.681 429.633 840.214 431.366 824.181 428.766L621.381 393.666C596.681 389.333 572.848 403.633 564.614 427.033C558.548 443.933 551.181 463.433 543.381 479.9C481.848 489.866 422.048 476.866 365.281 452.6C360.948 450.866 357.048 449.133 352.714 446.966C360.514 407.533 330.614 242.866 367.881 199.966C380.448 185.666 393.014 183.933 405.148 188.266C433.314 198.233 464.948 192.6 485.314 170.933C501.781 154.033 522.581 139.3 548.148 138.866C560.714 138.433 570.681 141.033 578.914 145.8C604.914 160.1 636.548 155.333 659.948 137.566C667.314 132.366 675.114 128.9 683.781 128.9C696.348 128.9 707.614 134.1 716.714 141.033C734.048 154.033 757.014 157.066 778.248 152.733C779.548 152.3 780.848 152.3 782.148 152.3C787.348 152.3 792.981 153.6 797.748 155.766C815.948 163.566 836.314 164.433 854.514 156.633C863.181 153.166 873.581 153.166 883.981 163.133C896.981 175.7 913.881 183.933 932.081 184.366C936.848 184.366 942.914 186.533 950.281 191.3C953.748 193.9 956.781 198.666 958.948 205.166C962.414 215.133 970.648 222.5 981.048 225.533C987.548 227.7 992.314 234.2 993.614 248.933C997.948 295.733 957.214 440.466 946.381 478.166Z" fill="#423232"/>
<path d="M980.181 225.1C961.115 232.033 957.648 228.133 935.981 222.5C914.315 216.866 895.248 241.133 879.648 216C857.115 179.166 815.515 204.3 807.281 197.366C799.048 190.433 773.481 167.466 737.515 191.733C713.681 207.766 683.348 179.166 645.215 179.166C568.948 179.166 555.081 235.066 528.648 209.5C502.215 184.366 474.048 201.266 435.048 208.2C396.048 215.133 376.115 191.733 376.115 191.733C385.648 185.233 395.181 185.233 404.281 188.266C432.448 198.233 464.081 192.6 484.448 170.933C500.915 154.033 521.715 139.3 547.281 138.866C559.848 138.433 569.815 141.033 578.048 145.8C604.048 160.1 635.681 155.333 659.081 137.566C666.448 132.366 674.248 128.9 682.915 128.9C695.481 128.9 706.748 134.1 715.848 141.033C733.181 154.033 756.148 157.066 777.381 152.733C778.681 152.3 779.981 152.3 781.281 152.3C786.481 152.3 792.115 153.6 796.881 155.766C815.081 163.566 835.448 164.433 853.648 156.633C862.315 153.166 872.715 153.166 883.115 163.133C896.115 175.7 913.015 183.933 931.215 184.366C935.981 184.366 942.048 186.533 949.415 191.3C952.881 193.9 955.915 198.666 958.081 205.166C961.548 214.7 970.215 222.066 980.181 225.1Z" fill="#5E4949"/>
<path d="M525.181 620.3C517.815 602.1 498.315 568.733 452.381 574.8C406.448 580.433 385.648 673.6 453.248 724.733C472.748 739.033 493.115 745.966 493.115 745.966L440.681 764.166C440.681 764.166 345.348 710 341.881 586.066C340.148 528.433 346.215 481.633 352.715 447.4C412.948 475.133 477.081 491.166 543.381 480.333C536.014 495.5 527.781 508.066 519.981 514.133C496.148 531.466 528.215 577.833 525.181 620.3Z" fill="#99807F"/>
<path d="M526.048 508.066C523.881 510.233 522.148 512.4 519.981 513.7C514.781 517.6 512.181 523.233 511.314 529.733C484.448 531.033 445.881 519.766 432.448 515.433C429.414 514.566 427.681 511.966 427.681 508.933V506.766C427.681 502 432.014 498.966 436.348 499.833C466.248 508.066 523.881 508.066 526.048 508.066Z" fill="#423232"/>
<path d="M516.948 566.133C493.115 564.4 470.148 560.066 459.748 557.9C456.281 557.033 454.115 554.433 454.115 550.966C454.115 546.633 458.015 543.6 462.348 544.033C481.848 547.066 502.648 546.633 512.615 546.2C513.481 552.266 515.215 558.766 516.948 566.133Z" fill="#423232"/>
<path d="M877.818 658.314C866.118 644.014 850.951 634.047 832.751 633.614C813.685 633.181 783.785 637.514 753.885 661.347C714.885 692.547 636.885 687.781 606.118 684.747C597.451 683.881 589.218 688.214 585.318 696.014C576.651 713.347 564.951 749.314 570.585 807.381C577.951 886.681 642.518 958.614 733.518 952.547C853.118 945.181 922.885 848.981 927.218 720.281C926.351 684.747 905.118 692.114 877.818 658.314Z" fill="white"/>
<path d="M717.919 684.748C717.919 684.748 900.352 767.081 915.952 707.281" stroke="#EDF3F4" stroke-width="13" stroke-miterlimit="10" stroke-linecap="round" stroke-linejoin="round"/>
<path d="M644.252 743.682C644.252 743.682 828.419 848.982 911.185 791.782" stroke="#EDF3F4" stroke-width="13" stroke-miterlimit="10" stroke-linecap="round" stroke-linejoin="round"/>
<path d="M637.752 818.215C637.752 818.215 732.652 903.581 869.152 872.815" stroke="#EDF3F4" stroke-width="13" stroke-miterlimit="10" stroke-linecap="round" stroke-linejoin="round"/>
<path d="M662.885 692.114C662.885 692.114 644.685 717.247 637.319 783.547C628.652 863.281 666.352 929.581 666.352 929.581" stroke="#EDF3F4" stroke-width="13" stroke-miterlimit="10" stroke-linecap="round" stroke-linejoin="round"/>
<path d="M602.651 695.581C602.651 695.581 552.818 660.914 517.718 601.114" stroke="white" stroke-width="13" stroke-miterlimit="10" stroke-linecap="round" stroke-linejoin="round"/>
<path d="M492.152 735.881C502.118 768.381 526.818 821.248 589.218 868.915" stroke="white" stroke-width="13" stroke-miterlimit="10" stroke-linecap="round" stroke-linejoin="round"/>
</g>
</svg>
